<?xml version="1.0" encoding="UTF-8"?>
<svg id="Layer_1" data-name="Layer 1" xmlns="http://www.w3.org/2000/svg" viewBox="115 285 770 435" preserveAspectRatio="xMidYMid meet">
  <defs>
    <style>
      .cls-1 {
        fill: #fff;
        stroke-width: 0px;
      }
    </style>
  </defs>
  <g>
    <path class="cls-1" d="M285.79,704.18l-2.58,9.1h-1.02l-2.29-7.76-2.34,7.76h-.99s-2.53-9.1-2.53-9.1h.98l2.08,7.98,2.33-7.98h1.02l2.27,7.98,2.1-7.98h.98Z"/>
    <path class="cls-1" d="M303.71,704.18v9.1h-.91v-4.26h-4.94v4.26h-.91v-9.1h.91v4.09h4.94v-4.09h.91Z"/>
    <path class="cls-1" d="M316.47,704.92v3.4h3.45v.76h-3.45v3.45h3.84v.76h-4.75v-9.12h4.75v.76h-3.84Z"/>
    <path class="cls-1" d="M336.73,713.29l-2.25-3.8h-1.68v3.8h-.91v-9.1h2.74c1.02,0,1.79.24,2.31.73.53.49.79,1.12.79,1.91,0,.66-.19,1.22-.57,1.69-.38.46-.94.77-1.67.91l2.34,3.87h-1.09ZM332.79,708.74h1.84c.71,0,1.25-.17,1.61-.52s.54-.81.54-1.39-.17-1.06-.52-1.39c-.35-.33-.89-.49-1.64-.49h-1.82v3.79Z"/>
    <path class="cls-1" d="M350.21,704.92v3.4h3.45v.76h-3.45v3.45h3.84v.76h-4.75v-9.12h4.75v.76h-3.84Z"/>
    <path class="cls-1" d="M384.28,704.18v.75h-2.53v8.35h-.91v-8.35h-2.54v-.75h5.98Z"/>
    <path class="cls-1" d="M400.77,711.12h-4.14l-.79,2.16h-.96l3.32-8.99h1.03l3.31,8.99h-.96l-.79-2.16ZM400.5,710.37l-1.8-4.92-1.8,4.92h3.6Z"/>
    <path class="cls-1" d="M414.67,712.54h3.27v.74h-4.18v-9.1h.91v8.36Z"/>
    <path class="cls-1" d="M429.92,704.92v3.4h3.45v.76h-3.45v3.45h3.84v.76h-4.75v-9.12h4.75v.76h-3.84Z"/>
    <path class="cls-1" d="M452.19,713.29h-.91l-5.04-7.66v7.66h-.91v-9.1h.91l5.04,7.65v-7.65h.91v9.1Z"/>
    <path class="cls-1" d="M469.36,704.18v.75h-2.53v8.35h-.91v-8.35h-2.54v-.75h5.98Z"/>
    <path class="cls-1" d="M499.47,709.36c.36.43.53.92.53,1.48,0,.46-.12.88-.34,1.24-.23.37-.57.66-1.01.87-.44.21-.97.32-1.59.32h-3.15v-9.1h3.06c.92,0,1.62.21,2.1.64.48.42.72.98.72,1.65,0,.56-.15,1.02-.46,1.37-.3.35-.7.6-1.17.74.51.1.95.36,1.3.78ZM494.82,708.21h2.12c.62,0,1.09-.15,1.43-.44.33-.29.5-.69.5-1.2s-.17-.9-.5-1.19c-.33-.29-.82-.43-1.47-.43h-2.08v3.26ZM498.54,712.05c.37-.31.55-.74.55-1.29s-.19-.98-.58-1.31c-.39-.33-.91-.49-1.56-.49h-2.14v3.56h2.18c.66,0,1.17-.16,1.54-.47Z"/>
    <path class="cls-1" d="M512.37,704.92v3.4h3.45v.76h-3.45v3.45h3.84v.76h-4.75v-9.12h4.75v.76h-3.84Z"/>
    <path class="cls-1" d="M527.95,706.32c.39-.71.92-1.26,1.6-1.65.68-.4,1.43-.59,2.27-.59,1.02,0,1.89.24,2.61.72.73.48,1.25,1.16,1.58,2.04h-1.07c-.26-.62-.66-1.1-1.19-1.45-.53-.35-1.18-.52-1.93-.52-.67,0-1.27.16-1.8.47-.53.31-.95.76-1.26,1.35-.3.59-.46,1.27-.46,2.04s.15,1.45.46,2.03c.3.58.72,1.03,1.26,1.34.53.31,1.14.47,1.8.47.76,0,1.4-.17,1.93-.51.53-.34.93-.82,1.19-1.43h1.07c-.33.87-.86,1.54-1.59,2.02s-1.6.72-2.61.72c-.83,0-1.59-.2-2.27-.59-.68-.4-1.21-.94-1.6-1.65s-.59-1.5-.59-2.4.2-1.7.59-2.4Z"/>
    <path class="cls-1" d="M549.39,712.78c-.69-.4-1.23-.95-1.62-1.65s-.59-1.51-.59-2.4.2-1.7.59-2.4.94-1.26,1.62-1.65c.69-.4,1.45-.59,2.29-.59s1.62.2,2.31.59c.69.4,1.22.95,1.61,1.65.39.71.59,1.51.59,2.4s-.2,1.7-.59,2.4c-.39.71-.93,1.26-1.61,1.65-.69.4-1.45.59-2.31.59s-1.61-.2-2.29-.59ZM553.5,712.11c.54-.31.96-.76,1.28-1.35.31-.59.47-1.27.47-2.04s-.16-1.45-.47-2.03c-.31-.58-.74-1.03-1.28-1.34-.54-.31-1.15-.47-1.82-.47s-1.29.16-1.82.47c-.54.31-.96.76-1.28,1.34-.31.58-.47,1.26-.47,2.03s.16,1.45.47,2.04c.31.59.74,1.04,1.28,1.35.54.31,1.15.47,1.82.47s1.28-.16,1.82-.47Z"/>
    <path class="cls-1" d="M576.52,704.3v8.99h-.91v-7.18l-3.2,7.18h-.66l-3.2-7.15v7.15h-.91v-8.99h.96l3.48,7.79,3.48-7.79h.98Z"/>
    <path class="cls-1" d="M589.27,704.92v3.4h3.45v.76h-3.45v3.45h3.84v.76h-4.75v-9.12h4.75v.76h-3.84Z"/>
    <path class="cls-1" d="M605.86,713.06c-.46-.21-.81-.5-1.07-.87-.26-.37-.4-.79-.42-1.25h.96c.04.44.24.83.59,1.17.35.33.86.5,1.52.5.62,0,1.11-.16,1.47-.48.36-.32.54-.72.54-1.2,0-.39-.1-.71-.3-.94s-.45-.42-.74-.53c-.3-.12-.7-.25-1.22-.38-.61-.17-1.09-.33-1.45-.48-.36-.16-.66-.4-.91-.73-.25-.33-.38-.78-.38-1.34,0-.47.12-.89.36-1.26s.59-.66,1.03-.87c.44-.21.95-.31,1.52-.31.84,0,1.52.21,2.04.62.52.41.81.94.89,1.6h-.99c-.06-.37-.26-.71-.61-1s-.82-.44-1.41-.44c-.55,0-1,.15-1.37.44-.36.29-.55.69-.55,1.19,0,.38.1.69.3.92.2.23.45.41.75.53.3.12.71.25,1.22.39.59.16,1.07.33,1.43.49.36.16.67.41.92.74.25.33.38.77.38,1.33,0,.42-.11.83-.34,1.21-.23.38-.56.69-1,.92-.44.23-.97.35-1.59.35s-1.13-.1-1.58-.31Z"/>
    <path class="cls-1" d="M636.15,704.18v9.1h-.91v-9.1h.91Z"/>
    <path class="cls-1" d="M648.16,706.32c.39-.71.92-1.26,1.6-1.65.68-.4,1.43-.59,2.27-.59,1.02,0,1.89.24,2.61.72.73.48,1.25,1.16,1.58,2.04h-1.07c-.26-.62-.66-1.1-1.19-1.45-.53-.35-1.18-.52-1.93-.52-.67,0-1.27.16-1.8.47s-.95.76-1.26,1.35c-.3.59-.46,1.27-.46,2.04s.15,1.45.46,2.03c.3.58.72,1.03,1.26,1.34.53.31,1.14.47,1.8.47.76,0,1.4-.17,1.93-.51.53-.34.93-.82,1.19-1.43h1.07c-.33.87-.86,1.54-1.59,2.02-.73.48-1.6.72-2.6.72-.83,0-1.59-.2-2.27-.59s-1.21-.94-1.6-1.65c-.39-.7-.59-1.5-.59-2.4s.2-1.7.59-2.4Z"/>
    <path class="cls-1" d="M669.6,712.78c-.69-.4-1.23-.95-1.62-1.65s-.59-1.51-.59-2.4.2-1.7.59-2.4.94-1.26,1.62-1.65c.69-.4,1.45-.59,2.29-.59s1.62.2,2.31.59c.69.4,1.22.95,1.61,1.65.39.71.59,1.51.59,2.4s-.2,1.7-.59,2.4c-.39.71-.93,1.26-1.61,1.65-.69.4-1.45.59-2.31.59s-1.61-.2-2.29-.59ZM673.71,712.11c.54-.31.96-.76,1.28-1.35.31-.59.47-1.27.47-2.04s-.16-1.45-.47-2.03c-.31-.58-.74-1.03-1.28-1.34-.54-.31-1.15-.47-1.82-.47s-1.29.16-1.82.47c-.54.31-.96.76-1.28,1.34-.31.58-.47,1.26-.47,2.03s.16,1.45.47,2.04c.31.59.74,1.04,1.28,1.35.54.31,1.15.47,1.82.47s1.28-.16,1.82-.47Z"/>
    <path class="cls-1" d="M694.69,713.29h-.91l-5.04-7.66v7.66h-.91v-9.1h.91l5.04,7.65v-7.65h.91v9.1Z"/>
    <path class="cls-1" d="M707.45,704.18v9.1h-.91v-9.1h.91Z"/>
    <path class="cls-1" d="M719.46,706.32c.39-.71.92-1.26,1.6-1.65.68-.4,1.43-.59,2.27-.59,1.02,0,1.89.24,2.61.72.73.48,1.25,1.16,1.58,2.04h-1.07c-.26-.62-.66-1.1-1.19-1.45-.53-.35-1.18-.52-1.93-.52-.67,0-1.27.16-1.8.47-.53.31-.95.76-1.26,1.35-.3.59-.46,1.27-.46,2.04s.15,1.45.46,2.03c.3.58.72,1.03,1.26,1.34.53.31,1.14.47,1.8.47.76,0,1.4-.17,1.93-.51.53-.34.93-.82,1.19-1.43h1.07c-.33.87-.86,1.54-1.59,2.02s-1.6.72-2.61.72c-.83,0-1.59-.2-2.27-.59-.68-.4-1.21-.94-1.6-1.65s-.59-1.5-.59-2.4.2-1.7.59-2.4Z"/>
  </g>
  <g>
    <path class="cls-1" d="M217.44,508.28c5.44,0,9.25,2.51,9.25,6.71,0,3.43-2.47,5.71-6.25,6.44,4.43.73,7.33,3.16,7.33,6.82,0,4.36-4.24,7.02-10.33,7.02h-12.34v-.31l2.51-.62v-25.14l-2.51-.58v-.35h12.34ZM211.77,509.05v12.03h4.9c3.35,0,5.78-2,5.78-6.02s-2.43-6.02-5.78-6.02h-4.9ZM216.67,534.5c4.01,0,6.86-2.12,6.86-6.32s-2.85-6.32-6.86-6.32h-4.9v12.65h4.9Z"/>
    <path class="cls-1" d="M275.62,534.5l1.81-3.93h.62v4.7h-21.13v-.31l2.51-.62v-25.14l-2.51-.58v-.35h20.74v4.74h-.62l-1.81-3.97h-11.64v11.88h9.41l.81-3.01h.58v6.82h-.58l-.81-3.01h-9.41v12.76h12.03Z"/>
    <path class="cls-1" d="M324.74,534.5l1.81-3.93h.62v4.7h-19.78v-.31l2.51-.62v-24.95l-2.51-.73v-.39h9.18v.39l-2.51.73v25.1h10.68Z"/>
    <path class="cls-1" d="M373.97,534.5l1.81-3.93h.62v4.7h-19.78v-.31l2.51-.62v-24.95l-2.51-.73v-.39h9.18v.39l-2.51.73v25.1h10.68Z"/>
    <path class="cls-1" d="M431.46,534.15l2.47.73v.39h-9.29v-.39l2.54-.73-3.24-7.83h-11.64l-3.39,7.83,3.39.73v.39h-6.86v-.39l2.62-.73,11.3-25.87h1.27l10.83,25.87ZM412.64,525.52h10.95l-5.32-12.99-5.63,12.99Z"/>
    <path class="cls-1" d="M528.35,534.15l2.39.73v.39h-9.02v-.39l2.51-.73-1.62-22.32-9.91,23.44h-1.27l-10.06-23.48-1.66,22.44,2.35.73v.31h-5.67v-.31l2.51-.73,1.81-24.83-2.51-.73v-.39h5.9l9.64,22.75,9.56-22.75h5.67v.39l-2.39.73,1.77,24.75Z"/>
    <path class="cls-1" d="M572.76,508.05c7.63,0,12.99,5.32,12.99,13.73s-5.36,13.73-12.99,13.73-12.99-5.24-12.99-13.73,5.32-13.73,12.99-13.73ZM572.76,534.92c5.01,0,8.6-4.43,8.6-13.11s-3.59-13.19-8.6-13.19-8.64,4.47-8.64,13.19,3.59,13.11,8.64,13.11Z"/>
    <path class="cls-1" d="M617.41,534.23v-24.83l-2.51-.73v-.39h6.86l15.23,21.21v-20.17l-2.51-.69v-.35h5.82v.35l-2.51.69v25.95h-1.2l-18.39-25.53v24.48l2.51.73v.31h-5.82v-.31l2.51-.73Z"/>
    <path class="cls-1" d="M682.53,522.62c1.2.42,1.97,1.54,2.66,2.78l5.09,8.87,2.24.62v.39h-5.98l-7.02-12.45h-4.47v11.34l2.51.73v.39h-9.18v-.39l2.51-.73v-24.95l-2.51-.58v-.35h11.57c5.67,0,9.56,2.7,9.56,7.33,0,3.86-2.74,6.48-6.98,7.02ZM675.05,509.05v12.99h4.4c3.39,0,5.82-2.16,5.82-6.48s-2.43-6.52-5.82-6.52h-4.4Z"/>
    <path class="cls-1" d="M732.34,508.05c7.63,0,12.99,5.32,12.99,13.73s-5.36,13.73-12.99,13.73-12.99-5.24-12.99-13.73,5.32-13.73,12.99-13.73ZM732.34,534.92c5.01,0,8.6-4.43,8.6-13.11s-3.59-13.19-8.6-13.19-8.64,4.47-8.64,13.19,3.59,13.11,8.64,13.11Z"/>
    <path class="cls-1" d="M793.18,534.5l1.81-3.93h.62v4.7h-21.13v-.31l2.51-.62v-25.14l-2.51-.58v-.35h20.74v4.74h-.62l-1.81-3.97h-11.64v11.88h9.41l.81-3.01h.58v6.82h-.58l-.81-3.01h-9.41v12.76h12.03Z"/>
  </g>
  <g>
    <g>
      <path class="cls-1" d="M453.9,552.88c-13.52,11.27-32.55,16.93-54.77,16.93h-54.58v-16.93h-46.41v15.27l-27.93,6.66v3.33h137.52c38.07,0,69.65-9.03,90.05-25.26h-43.88Z"/>
      <path class="cls-1" d="M476.33,442.47c-9.75-6.53-18.61-11.19-35.08-13.83,42.11-7.91,56.53-36.42,56.53-73.48,0-45.4-29.46-68.54-90.05-68.54h-137.52v3.75l27.94,6.24v198.37h46.42v-61.76h54.58c42.42,0,73.22,20.26,76.24,61.49h28.94c-2.51-22.71-10.39-40.49-27.98-52.25ZM344.55,424.88v-129.93h54.58c37.39,0,64.46,22.07,64.46,64.97s-27.07,64.97-64.46,64.97h-54.58Z"/>
    </g>
    <g>
      <path class="cls-1" d="M531.87,494.71h-23.68c-1.32-11.87-4.09-22.39-8.96-31.41-2.15-3.98-4.7-7.68-7.72-11.06-7.24-9.84-12.93-15.98-17.23-19.82,0,0-.02-.02-.02-.02-.77-.8-1.58-1.55-2.41-2.23-1.72-1.41-3.52-2.52-5.36-3.27-.97-.41-1.95-.7-2.91-.88-.75-.14-1.49-.21-2.23-.21v-.93h41.29l29.22,69.83Z"/>
      <path class="cls-1" d="M659.77,494.71l19.23-48.95,1.37,48.95h24.48l-1.71-55.8c-.39-14.02,15.7-12.78,22.35-12.78l-.7-1.25h-46.84l-26.66,69.82h8.47Z"/>
      <path class="cls-1" d="M629.03,553.01l-34.71,90.93-38.06-90.93h-25.97c17.81,39.92,35.62,79.81,53.53,119.6h6.3l.35-1.56,46.38-118.04h-7.82Z"/>
      <path class="cls-1" d="M720.29,671.68c-4.9,0-10.15-7.79-10.5-15.58l-3.16-103.08h-24.64l2.95,105.26c-.6,7.18-3.74,11.86-8.78,13.08-.87.21-10.84.32-11.82.32v.93h67.43v-.93h-11.49Z"/>
      <path class="cls-1" d="M482.35,656.1l2.15-103.08h-7.7c-1.01,34.43-2.02,68.83-3.2,103.08-.35,7.79-5.6,15.58-10.5,15.58h-9.71v.93h49.23v-.93h-10.47c-5.25,0-9.8-7.79-9.8-15.58Z"/>
    </g>
  </g>
  <rect class="cls-1" x="812.41" y="519.02" width="68.82" height="1.09"/>
  <rect class="cls-1" x="118.76" y="519.02" width="68.82" height="1.09"/>
</svg>